<?xml version="1.0" encoding="UTF-8"?>
<svg width="763px" height="217px" viewBox="0 0 763 217" version="1.1" xmlns="http://www.w3.org/2000/svg" xmlns:xlink="http://www.w3.org/1999/xlink">
    <defs>
        <radialGradient cx="50%" cy="0%" fx="50%" fy="0%" r="84.564946%" id="radialGradient-1">
            <stop stop-color="#8E2DE2" offset="0%"></stop>
            <stop stop-color="#7D2CC4" offset="100%"></stop>
        </radialGradient>
        <circle id="path-2" cx="108.5" cy="108.5" r="108.5"></circle>
    </defs>
    <g id="Page-1" stroke="none" stroke-width="1" fill="none" fill-rule="evenodd">
        <g id="logo">
            <path d="M367.9375,144.859375 C365.749989,147.359387 362.716165,149.794259 358.835938,152.164062 C354.95571,154.533866 350.033884,156.526034 344.070312,158.140625 C338.106741,159.755216 331.296913,160.5625 323.640625,160.5625 C313.640575,160.5625 304.903683,158.401063 297.429688,154.078125 C289.955692,149.755187 284.1745,143.453166 280.085938,135.171875 C275.997375,126.890584 273.953125,116.968808 273.953125,105.40625 L273.953125,98.921875 C273.953125,87.3593172 275.958313,77.4245207 279.96875,69.1171875 C283.979187,60.8098543 289.60413,54.4817926 296.84375,50.1328125 C304.08337,45.7838324 312.468702,43.609375 322,43.609375 C336.479239,43.609375 347.41663,47.0207992 354.8125,53.84375 C362.20837,60.6667008 366.557285,70.0676484 367.859375,82.046875 L343.40625,82.046875 C342.520829,76.1093453 340.476579,71.6172027 337.273438,68.5703125 C334.070296,65.5234223 329.239616,64 322.78125,64 C315.38538,64 309.682312,66.9426789 305.671875,72.828125 C301.661438,78.7135711 299.65625,87.359318 299.65625,98.765625 L299.65625,105.40625 C299.65625,128.583449 308.17179,140.171875 325.203125,140.171875 C333.067748,140.171875 338.874981,138.479184 342.625,135.09375 L342.625,116.890625 L322.390625,116.890625 L322.390625,98.53125 L367.9375,98.53125 L367.9375,144.859375 Z M456.25,74.46875 L456.25,159 L433.359375,159 L432.65625,150.09375 C429.947903,153.479184 426.692727,156.070304 422.890625,157.867188 C419.088523,159.664071 414.739608,160.5625 409.84375,160.5625 C401.041623,160.5625 394.14065,158.010442 389.140625,152.90625 C384.1406,147.802058 381.640625,139.88547 381.640625,129.15625 L381.640625,74.46875 L406.015625,74.46875 L406.015625,129.3125 C406.015625,133.21877 407.018219,136.122386 409.023438,138.023438 C411.028656,139.924489 413.802066,140.875 417.34375,140.875 C424.270868,140.875 429.088528,138.479191 431.796875,133.6875 L431.796875,74.46875 L456.25,74.46875 Z M483.46875,40.171875 C487.53127,40.171875 490.812487,41.3307176 493.3125,43.6484375 C495.812513,45.9661574 497.0625,48.9739398 497.0625,52.671875 C497.0625,56.3177266 495.812513,59.2994676 493.3125,61.6171875 C490.812487,63.9349074 487.53127,65.09375 483.46875,65.09375 C479.40623,65.09375 476.138033,63.9349074 473.664062,61.6171875 C471.190092,59.2994676 469.953125,56.3177266 469.953125,52.671875 C469.953125,48.9739398 471.190092,45.9661574 473.664062,43.6484375 C476.138033,41.3307176 479.40623,40.171875 483.46875,40.171875 Z M471.359375,159 L471.359375,74.46875 L495.8125,74.46875 L495.8125,159 L471.359375,159 Z M585.0625,39 L585.0625,159 L563.109375,159 L561.9375,149.859375 C556.416639,156.994827 549.359418,160.5625 540.765625,160.5625 C533.890591,160.5625 527.979191,158.726581 523.03125,155.054688 C518.083309,151.382794 514.320325,146.317741 511.742188,139.859375 C509.16405,133.401009 507.875,126.031291 507.875,117.75 L507.875,116.109375 C507.875,107.515582 509.16405,99.9635742 511.742188,93.453125 C514.320325,86.9426758 518.083309,81.890643 523.03125,78.296875 C527.979191,74.703107 533.942673,72.90625 540.921875,72.90625 C548.838581,72.90625 555.401016,75.9270531 560.609375,81.96875 L560.609375,39 L585.0625,39 Z M546.9375,140.875 C550.218766,140.875 552.992176,140.184903 555.257812,138.804688 C557.523449,137.424472 559.307285,135.432305 560.609375,132.828125 L560.609375,100.640625 C558.057279,95.2760148 553.552116,92.59375 547.09375,92.59375 C541.937474,92.59375 538.174491,94.7031039 535.804688,98.921875 C533.434884,103.140646 532.25,108.869755 532.25,116.109375 L532.25,117.75 C532.25,124.833369 533.395822,130.458312 535.6875,134.625 C537.979178,138.791688 541.729141,140.875 546.9375,140.875 Z M673.140625,39 L673.140625,159 L651.1875,159 L650.015625,149.859375 C644.494764,156.994827 637.437543,160.5625 628.84375,160.5625 C621.968716,160.5625 616.057316,158.726581 611.109375,155.054688 C606.161434,151.382794 602.39845,146.317741 599.820312,139.859375 C597.242175,133.401009 595.953125,126.031291 595.953125,117.75 L595.953125,116.109375 C595.953125,107.515582 597.242175,99.9635742 599.820312,93.453125 C602.39845,86.9426758 606.161434,81.890643 611.109375,78.296875 C616.057316,74.703107 622.020798,72.90625 629,72.90625 C636.916706,72.90625 643.479141,75.9270531 648.6875,81.96875 L648.6875,39 L673.140625,39 Z M635.015625,140.875 C638.296891,140.875 641.070301,140.184903 643.335938,138.804688 C645.601574,137.424472 647.38541,135.432305 648.6875,132.828125 L648.6875,100.640625 C646.135404,95.2760148 641.630241,92.59375 635.171875,92.59375 C630.015599,92.59375 626.252616,94.7031039 623.882812,98.921875 C621.513009,103.140646 620.328125,108.869755 620.328125,116.109375 L620.328125,117.75 C620.328125,124.833369 621.473947,130.458312 623.765625,134.625 C626.057303,138.791688 629.807266,140.875 635.015625,140.875 Z M762.46875,124.703125 L709.421875,124.703125 C710.35938,129.70315 712.520816,133.648423 715.90625,136.539062 C719.291684,139.429702 723.614557,140.875 728.875,140.875 C732.93752,140.875 736.687483,140.145841 740.125,138.6875 C743.562517,137.229159 746.505196,134.963557 748.953125,131.890625 L760.4375,145.5625 C757.468735,149.781271 753.11982,153.335923 747.390625,156.226562 C741.66143,159.117202 734.968788,160.5625 727.3125,160.5625 C718.61454,160.5625 711.036491,158.726581 704.578125,155.054688 C698.119759,151.382794 693.171892,146.421906 689.734375,140.171875 C686.296858,133.921844 684.578125,127.046912 684.578125,119.546875 L684.578125,116.578125 C684.578125,108.192666 686.166651,100.705762 689.34375,94.1171875 C692.520849,87.5286129 697.117157,82.346373 703.132812,78.5703125 C709.148468,74.794252 716.322875,72.90625 724.65625,72.90625 C732.62504,72.90625 739.447888,74.5859207 745.125,77.9453125 C750.802112,81.3047043 755.111964,86.096323 758.054688,92.3203125 C760.997411,98.544302 762.46875,105.874958 762.46875,114.3125 L762.46875,124.703125 Z M738.5625,106.578125 C738.5625,102.203103 737.377616,98.7786582 735.007812,96.3046875 C732.638009,93.8307168 729.13544,92.59375 724.5,92.59375 C716.218709,92.59375 711.218759,97.9061969 709.5,108.53125 L738.5625,108.53125 L738.5625,106.578125 Z" id="Guidde" fill="#000000"></path>
            <g id="symbol">
                <mask id="mask-3" fill="white">
                    <use xlink:href="#path-2"></use>
                </mask>
                <use id="Oval" fill="url(#radialGradient-1)" xlink:href="#path-2"></use>
                <path d="M68.1313127,44 L138.86459,44 C142.053562,44 143.101631,47.013888 141.205517,50.7317073 L112.88147,106.268293 C110.985357,109.986112 106.86308,113 103.674108,113 L32.9408304,113 C29.7518581,113 28.7037893,109.986112 30.5999031,106.268293 L58.9239498,50.7317073 C60.8200636,47.013888 64.9423404,44 68.1313127,44 Z" id="Rectangle" fill="#C3BEF7" mask="url(#mask-3)"></path>
                <path d="M174.788079,92.0736795 C174.704854,92.2802291 174.61278,92.4850961 174.511702,92.687826 L95.2477157,251.666788 C93.1876549,255.798631 88.1681254,257.478142 84.0362828,255.418081 C79.9044401,253.35802 78.2249291,248.338491 80.2849898,244.206648 L129.249018,146 L48.5478146,146 C44.4102417,146 42.8477056,142.418278 45.0577926,138 L78.0719525,72 C80.2820394,67.581722 85.4278344,64 89.5654072,64 L181.339203,64 C185.476776,64 187.039312,67.581722 184.829225,72 L174.788079,92.0736795 Z" id="Combined-Shape" fill="#FFFFFF" mask="url(#mask-3)"></path>
            </g>
        </g>
    </g>
</svg>